<?xml version="1.0" ?><svg viewBox="0 0 512 512" xmlns="http://www.w3.org/2000/svg"><g id="GLYPH"><path d="M371.0874,224.45428A136.50243,136.50243,0,0,0,392,152c0-74.99072-61.00977-136-136-136S120,77.00928,120,152a135.18336,135.18336,0,0,0,20.95605,72.45038C71.11157,230.09045,16,288.72742,16,360c0,74.99072,61.00977,136,136,136a135.75368,135.75368,0,0,0,103.96509-48.42969A136.44076,136.44076,0,0,0,360,496c74.99023,0,136-61.00928,136-136C496,288.74231,440.91113,230.1153,371.0874,224.45428ZM360,152.00684a104.68539,104.68539,0,0,1-2.22559,21.48925l-15.6582-3.292A88.63285,88.63285,0,0,0,344,152c.001-1.05664-.01758-2.10254-.05469-3.144l15.99024-.56348C359.97949,149.53809,360.001,150.7876,360,152.00684Zm-8.87012,42.081a104.136,104.136,0,0,1-10.77343,18.75244l-12.97071-9.36914a88.016,88.016,0,0,0,9.11524-15.86474Zm5.81641-67.20264-15.5293,3.85352a87.536,87.536,0,0,0-6.23633-17.18848l14.38672-7A103.55289,103.55289,0,0,1,356.94629,126.88525ZM323.17578,72.60254A104.7478,104.7478,0,0,1,338.1377,88.19971L325.50879,98.023A88.75894,88.75894,0,0,0,312.83594,84.8125Zm2.34766,155.8819a136.50271,136.50271,0,0,0-20.54883,7.19732l-4.52539-7.71447a88.5489,88.5489,0,0,0,14.73926-10.8462ZM285.30566,52.189a103.58217,103.58217,0,0,1,20.01075,8.22657l-7.59766,14.081a87.584,87.584,0,0,0-16.91309-6.9541ZM264.0332,48.30615l-1.2207,15.95313a89.83418,89.83418,0,0,0-18.30664.4834l-2.06641-15.86622A105.91985,105.91985,0,0,1,264.0332,48.30615ZM256,96V80h16V96h8a31.97957,31.97957,0,0,1,21.13232,56A31.97957,31.97957,0,0,1,280,208h-8v16H256V208H240v16H224V208H208V192h16V112H208V96h16V80h16V96Zm31.043,149.2868a136.6658,136.6658,0,0,0-12.65137,9.08106c-2.21289.39557-4.4375.72809-6.6709.97882l-1.78515-15.90039a87.63024,87.63024,0,0,0,17.85937-3.92383Zm-39.419-5.67987-1.50195,15.92969a103.85988,103.85988,0,0,1-21.207-4.26367l4.77734-15.27051A87.77353,87.77353,0,0,0,247.624,239.60693ZM221.39844,53.89648l5.32226,15.08887a87.7452,87.7452,0,0,0-16.5166,7.85352l-8.33984-13.65528A103.85684,103.85684,0,0,1,221.39844,53.89648ZM212.9043,228.74512l-7.84766,13.94336A104.55965,104.55965,0,0,1,187.418,230.18555l10.55469-12.02539A88.42674,88.42674,0,0,0,212.9043,228.74512ZM184.68652,76.30078l10.97266,11.64453a88.6086,88.6086,0,0,0-11.95313,13.86426l-13.13476-9.13672A104.62525,104.62525,0,0,1,184.68652,76.30078Zm.85157,128.42676-12.80274,9.59668A104.09335,104.09335,0,0,1,161.63574,195.773l14.50977-6.74121A88.12172,88.12172,0,0,0,185.53809,204.72754Zm-25.40332-93.11133L174.877,117.833a87.51,87.51,0,0,0-5.30175,17.50049l-15.71485-3.01075A103.56368,103.56368,0,0,1,160.13477,111.61621Zm7.8789,41.95557a88.49919,88.49919,0,0,0,2.20606,18.16406L154.624,175.30713a104.52774,104.52774,0,0,1-2.6084-21.45508ZM152,480a120,120,0,0,1,0-240c.135,0,.2688.006.40381.00641A137.10715,137.10715,0,0,0,179.97852,264.717l-3.17286,10.82544a87.584,87.584,0,0,1,16.91309,6.9541l4.09521-7.59a135.03378,135.03378,0,0,0,19.78077,7.5628l-8.75879,10.34308A88.75894,88.75894,0,0,1,221.50879,306.023l12.62891-9.82324a104.73593,104.73593,0,0,0-11.23829-12.28138,135.39528,135.39528,0,0,0,24.88965,3.8266A118.59852,118.59852,0,0,1,272,360,120.13623,120.13623,0,0,1,152,480Zm208,0a120.39361,120.39361,0,0,1-94.18018-45.65063,135.89613,135.89613,0,0,0,8.6294-15.20118,104.655,104.655,0,0,0,10.27148,12.60767l11.58008-11.041A88.55106,88.55106,0,0,1,285.10742,406.231L278.294,410.447a135.76381,135.76381,0,0,0,1.57177-96.69818l3.90186,2.25751a88.53888,88.53888,0,0,1,10.76074-14.80811l-11.90039-10.69433a104.52114,104.52114,0,0,0-8.17969,10.355,135.876,135.876,0,0,0-8.59912-15.24518A119.996,119.996,0,1,1,360,480Z"/><path d="M161.93555,447.44629l1.78515,15.90039a103.75165,103.75165,0,0,0,21.125-4.6416l-5.05078-15.18262A87.63024,87.63024,0,0,1,161.93555,447.44629Z"/><path d="M252.94629,334.88525a103.55289,103.55289,0,0,0-7.37891-20.335l-14.38672,7a87.536,87.536,0,0,1,6.23633,17.18848Z"/><path d="M255.93555,356.29248l-15.99024.56348c.03711,1.0415.05567,2.0874.05469,3.144a88.63285,88.63285,0,0,1-1.88379,18.2041l15.6582,3.292A104.68539,104.68539,0,0,0,256,360.00684C256.001,358.7876,255.97949,357.53809,255.93555,356.29248Z"/><path d="M223.38574,411.47119l12.97071,9.36914a104.136,104.136,0,0,0,10.77343-18.75244l-14.6289-6.48144A88.016,88.016,0,0,1,223.38574,411.47119Z"/><path d="M120.915,459.273a103.85988,103.85988,0,0,0,21.207,4.26367l1.50195-15.92969a87.77353,87.77353,0,0,1-17.93164-3.60449Z"/><path d="M70.87695,325.833l-14.74218-6.2168a103.56368,103.56368,0,0,0-6.27442,20.70654L65.5752,343.3335A87.51,87.51,0,0,1,70.87695,325.833Z"/><path d="M196.44922,435.96729l8.0957,13.80078A104.5609,104.5609,0,0,0,221.9541,436.958l-10.76562-11.83692A88.5489,88.5489,0,0,1,196.44922,435.96729Z"/><path d="M158.8125,272.25928l1.2207-15.95313a105.92168,105.92168,0,0,0-21.59375.57031l2.06641,15.86622A89.80094,89.80094,0,0,1,158.8125,272.25928Z"/><path d="M122.7207,276.98535l-5.32226-15.08887a103.85684,103.85684,0,0,0-19.53418,9.28711l8.33984,13.65528A87.7452,87.7452,0,0,1,122.7207,276.98535Z"/><path d="M91.65918,295.94531,80.68652,284.30078a104.62525,104.62525,0,0,0-14.11523,16.37207l13.13476,9.13672A88.6086,88.6086,0,0,1,91.65918,295.94531Z"/><path d="M57.63574,403.773a104.09335,104.09335,0,0,0,11.09961,18.55127l12.80274-9.59668a88.12172,88.12172,0,0,1-9.39258-15.6958Z"/><path d="M64.01367,361.57178l-15.99805.28027a104.52774,104.52774,0,0,0,2.6084,21.45508l15.59571-3.57129A88.49919,88.49919,0,0,1,64.01367,361.57178Z"/><path d="M83.418,438.18555a104.55965,104.55965,0,0,0,17.63867,12.50293l7.84766-13.94336a88.42674,88.42674,0,0,1-14.93164-10.585Z"/><path d="M198.78418,355.75977l-40-64a8.00062,8.00062,0,0,0-13.56836,0l-40,64a8.00193,8.00193,0,0,0,0,8.48046l40,64a8.00062,8.00062,0,0,0,13.56836,0l40-64A8.00193,8.00193,0,0,0,198.78418,355.75977ZM152,408.90576l-20.2417-32.38641,17.271,6.90838a7.99671,7.99671,0,0,0,5.9414,0l17.271-6.90838Zm0-41.522-28.145-11.25787L152,311.09424l28.145,45.03168Z"/><path d="M350.64258,375.58,387.249,359.31055l-6.498-14.6211-26.26465,11.67328,13.3584-66.79388-15.68946-3.1377-15.57812,77.89118L308.751,376.68945l6.498,14.6211,17.48438-7.77094-4.57813,22.89154A8.00053,8.00053,0,0,0,336,416h72V400H345.75879Z"/><path d="M413.14551,430.147l9.67187,12.74512a104.7189,104.7189,0,0,0,15.77442-14.77637l-12.08789-10.4834A88.7375,88.7375,0,0,1,413.14551,430.147Z"/><path d="M424.77051,300.42725l11.77344-10.834a104.66309,104.66309,0,0,0-16.20215-14.30762l-9.293,13.0254A88.62351,88.62351,0,0,1,424.77051,300.42725Z"/><path d="M437,402.63916l13.99023,7.76465a103.68283,103.68283,0,0,0,8.46582-19.90918l-15.29882-4.68555A87.60842,87.60842,0,0,1,437,402.63916Z"/><path d="M443.35645,331.71338l15.15234-5.1416a103.8656,103.8656,0,0,0-9.05274-19.644l-13.7539,8.1753A87.73125,87.73125,0,0,1,443.35645,331.71338Z"/><path d="M463.27539,347.66992l-15.88867,1.87793A89.39631,89.39631,0,0,1,448,360c0,2.62549-.11621,5.269-.3457,7.85742l15.9375,1.41211c.2705-3.05615.4082-6.1748.4082-9.26953A105.494,105.494,0,0,0,463.27539,347.66992Z"/><path d="M380.24414,445.66113l3.66406,15.5752a103.4938,103.4938,0,0,0,20.42383-7.13379l-6.82812-14.46973A87.46457,87.46457,0,0,1,380.24414,445.66113Z"/><path d="M301.1748,445.77588a104.04341,104.04341,0,0,0,19.00489,10.32666l6.13086-14.7793a87.9354,87.9354,0,0,1-16.0752-8.73486Z"/><path d="M323.916,279.7124l-6.56641-14.58984a104.01242,104.01242,0,0,0-18.68652,10.8833l9.44531,12.91406A88.088,88.088,0,0,1,323.916,279.7124Z"/><path d="M359.47754,272.002l-.0918-16a104.57013,104.57013,0,0,0-21.48828,2.35352l3.38672,15.63769A88.53024,88.53024,0,0,1,359.47754,272.002Z"/><path d="M343.8418,446.52148l-2.916,15.73243A104.92652,104.92652,0,0,0,360,464q1.23633,0,2.46777-.02832l-.37109-15.99609A89.36178,89.36178,0,0,1,343.8418,446.52148Z"/><path d="M401.52637,264.62305a103.49548,103.49548,0,0,0-20.63086-6.522l-3.19922,15.67676A87.4636,87.4636,0,0,1,395.13184,279.29Z"/><path d="M280,160H240v32h40a16,16,0,0,0,0-32Z"/><path d="M240,144h40a16,16,0,0,0,0-32H240Z"/></g></svg>