<?xml version="1.0" ?><svg data-name="Layer 1" id="Layer_1" viewBox="0 0 64 64" xmlns="http://www.w3.org/2000/svg"><path d="M35.707,57.293A1,1,0,0,0,35,57H30.333l-.084-.064A10.86,10.86,0,0,0,32,51a11,11,0,0,0-22,0,10.869,10.869,0,0,0,2.219,6.593l-3.635-.52L4.832,51.445A1,1,0,0,0,4,51H3a1,1,0,0,0,0,2h.465l3.7,5.555a1,1,0,0,0,.69.435l7,1A.969.969,0,0,0,15,60h4a1,1,0,0,0,.5-.132l6.43-3.674L29.4,58.8a1,1,0,0,0,.6.2h4.586l2.707,2.707a1,1,0,0,0,1.414-1.414ZM25.5,54.132,18.734,58H15.381A8.907,8.907,0,0,1,12,51a9,9,0,0,1,18,0,8.882,8.882,0,0,1-1.358,4.731L26.6,54.2A1,1,0,0,0,25.5,54.132Z"/><path d="M36.126,4.168a1,1,0,0,0-.726-.609L29.526,2.335a1,1,0,0,0-1.089.514c-.364.692-.683,1.4-.982,2.119L24.02,4.252a.976.976,0,0,0-.752.142,1,1,0,0,0-.431.632l-.816,3.916a1,1,0,0,0,.775,1.183l3.007.627a26.117,26.117,0,0,0-.276,6.344L26.368,27.5a1,1,0,0,0,.934.917l.063,0a1,1,0,0,0,.979-.8l1.914-9.187a36.068,36.068,0,0,1,1.954-6.351L60,17.875a.964.964,0,0,0,.2.021,1,1,0,0,0,.978-.8L62,13.185A1,1,0,0,0,61.221,12L35.06,6.552c.307-.486.624-.968.956-1.442A1,1,0,0,0,36.126,4.168Zm-11.943,4.2.408-1.958,2.163.451q-.314.954-.551,1.929ZM28.3,18.029l-.5,2.39-.282-3.484A24.07,24.07,0,0,1,29.869,4.449l3.67.764A37.877,37.877,0,0,0,28.3,18.029Zm31.534-4.273-.408,1.958-26.386-5.5c.3-.624.612-1.241.947-1.847Z"/><path d="M3,44a1,1,0,0,0,.707-.293l2.622-2.621,4.475.894a.993.993,0,0,0,1.091-.533L13.618,38H18a1,1,0,0,0,.832-.445l1.62-2.43,8.331,1.852A1.052,1.052,0,0,0,29,37h4.279l.439,1.316a1,1,0,0,0,1.9-.632l-.666-2A1,1,0,0,0,34,35H29.11l-8.893-1.977a1.006,1.006,0,0,0-1.049.422L17.465,36H13a1,1,0,0,0-.895.553l-1.658,3.316L6.2,39.02a1,1,0,0,0-.9.273l-3,3A1,1,0,0,0,3,44Z"/><path d="M29,51a8,8,0,1,0-14.565,4.572,1,1,0,1,0,1.64-1.144A6,6,0,1,1,27,51a1,1,0,0,0,2,0Z"/><path d="M13,32A11,11,0,1,0,2,21,11.013,11.013,0,0,0,13,32Zm0-20a9,9,0,1,1-9,9A9.01,9.01,0,0,1,13,12Z"/><path d="M13,29a8.014,8.014,0,0,0,2.285-.331,1,1,0,0,0-.57-1.918,6,6,0,1,1,3.21-2.323,1,1,0,0,0,1.64,1.144A8,8,0,1,0,13,29Z"/><path d="M3,37H5.723l2.762,1.657a1,1,0,0,0,1.03-1.715l-3-1.8A1,1,0,0,0,6,35H3a1,1,0,0,0,0,2Z"/><path d="M61,37c-4.547,0-10.3-4.723-10.362-4.771a1.007,1.007,0,0,0-1.276,0C49.3,32.277,43.547,37,39,37a1,1,0,0,0-1,1V49.436a8.024,8.024,0,0,0,3.294,6.469l8.118,5.9a1,1,0,0,0,1.176,0l8.118-5.9A8.024,8.024,0,0,0,62,49.436V38A1,1,0,0,0,61,37ZM60,49.436a6.019,6.019,0,0,1-2.471,4.852L50,59.764l-7.529-5.476A6.019,6.019,0,0,1,40,49.436V38.943c4.077-.45,8.4-3.456,10-4.672,1.6,1.216,5.923,4.222,10,4.672Z"/><path d="M46.707,47.293a1,1,0,0,0-1.414,1.414l3,3a1,1,0,0,0,1.414,0l9-9a1,1,0,0,0-1.414-1.414L49,49.586Z"/><path d="M41,47a9,9,0,0,0,18,0,1,1,0,0,0-2,0,7,7,0,1,1-3.5-6.064,1,1,0,1,0,1-1.731A9,9,0,0,0,41,47Z"/><path d="M50,19a1,1,0,0,0-.7-1.228l-1.929-.526a1,1,0,0,0-.527,1.93l1.93.526a.963.963,0,0,0,.264.035A1,1,0,0,0,50,19Z"/><path d="M41.58,15.667a1,1,0,1,0-.526,1.93l1.929.526a1,1,0,0,0,.527-1.93Z"/><path d="M50,31a1,1,0,0,0,1-1V28a1,1,0,0,0-2,0v2A1,1,0,0,0,50,31Z"/><path d="M51,22a1,1,0,0,0-2,0v2a1,1,0,0,0,2,0Z"/></svg>