<?xml version="1.0" ?><svg viewBox="0 0 48 48" xmlns="http://www.w3.org/2000/svg"><defs><style>.cls-1{fill:#bec6c6;}.cls-2{fill:#414141;}.cls-3{fill:#f8f9f9;}.cls-4{fill:#6457ff;}.cls-5{fill:#fff;}</style></defs><title/><g id="Cryptocurrency"><circle class="cls-1" cx="12" cy="34" r="10"/><path class="cls-2" d="M12,45A11,11,0,1,1,23,34,11,11,0,0,1,12,45Zm0-20a9,9,0,1,0,9,9A9,9,0,0,0,12,25Z"/><path class="cls-3" d="M13,39H9a1,1,0,0,1,0-2h4a1,1,0,0,0,0-2H11a3,3,0,0,1,0-6h4a1,1,0,0,1,0,2H11a1,1,0,0,0,0,2h2a3,3,0,0,1,0,6Z"/><path class="cls-3" d="M12,31a1,1,0,0,1-1-1V28a1,1,0,0,1,2,0v2A1,1,0,0,1,12,31Z"/><path class="cls-3" d="M12,41a1,1,0,0,1-1-1V38a1,1,0,0,1,2,0v2A1,1,0,0,1,12,41Z"/><circle class="cls-3" cx="24" cy="24" r="10"/><path class="cls-2" d="M24,35A11,11,0,1,1,35,24,11,11,0,0,1,24,35Zm0-20a9,9,0,1,0,9,9A9,9,0,0,0,24,15Z"/><path class="cls-4" d="M27,24c-1.75,2.91-1.07,1.77-3,5-1.93-3.23-1.25-2.09-3-5l3-5C27,24,26.62,23.36,27,24Z"/><polygon class="cls-5" points="27 24 25.61 26.31 24 27.12 22.39 26.31 21 24 21.28 23.53 24 24.88 26.72 23.53 27 24"/><circle class="cls-1" cx="36" cy="14" r="10"/><path class="cls-2" d="M36,25A11,11,0,1,1,47,14,11,11,0,0,1,36,25ZM36,5a9,9,0,1,0,9,9A9,9,0,0,0,36,5Z"/><path class="cls-3" d="M38,15H34a1,1,0,0,1-1-1V10a1,1,0,0,1,1-1h4a3,3,0,0,1,0,6Zm-3-2h3a1,1,0,0,0,0-2H35Z"/><path class="cls-3" d="M38,19H34a1,1,0,0,1-1-1V14a1,1,0,0,1,1-1h4a3,3,0,0,1,0,6Zm-3-2h3a1,1,0,0,0,0-2H35Z"/><path class="cls-3" d="M35,11a1,1,0,0,1-1-1V8a1,1,0,0,1,2,0v2A1,1,0,0,1,35,11Z"/><path class="cls-3" d="M38,11a1,1,0,0,1-1-1V8a1,1,0,0,1,2,0v2A1,1,0,0,1,38,11Z"/><path class="cls-3" d="M35,21a1,1,0,0,1-1-1V18a1,1,0,0,1,2,0v2A1,1,0,0,1,35,21Z"/><path class="cls-3" d="M38,21a1,1,0,0,1-1-1V18a1,1,0,0,1,2,0v2A1,1,0,0,1,38,21Z"/><path class="cls-3" d="M34,11H32a1,1,0,0,1,0-2h2a1,1,0,0,1,0,2Z"/><path class="cls-3" d="M34,19H32a1,1,0,0,1,0-2h2a1,1,0,0,1,0,2Z"/></g></svg>