<?xml version="1.0" ?><svg data-name="Finance Crypto" id="Finance_Crypto" viewBox="0 0 48 48" xmlns="http://www.w3.org/2000/svg" xmlns:xlink="http://www.w3.org/1999/xlink"><defs><style>.cls-1{fill:url(#linear-gradient);}.cls-2{fill:url(#linear-gradient-2);}.cls-3,.cls-4{fill:#ffa;}.cls-3{opacity:0.6;}.cls-5{fill:#fff;opacity:0.4;}.cls-6{fill:none;stroke:#b66244;stroke-linecap:round;stroke-linejoin:round;stroke-width:2px;}.cls-7{fill:#b66244;}.cls-8{fill:url(#linear-gradient-3);}.cls-9{fill:url(#linear-gradient-4);}.cls-10{fill:url(#linear-gradient-5);}.cls-11{fill:url(#linear-gradient-6);}</style><linearGradient gradientUnits="userSpaceOnUse" id="linear-gradient" x1="34" x2="34" y1="3" y2="25"><stop offset="0" stop-color="#fffa5f"/><stop offset="1" stop-color="#ffac36"/></linearGradient><linearGradient id="linear-gradient-2" xlink:href="#linear-gradient" y1="22" y2="6"/><linearGradient id="linear-gradient-3" x1="24" x2="24" xlink:href="#linear-gradient" y1="13" y2="35"/><linearGradient id="linear-gradient-4" x1="24" x2="24" xlink:href="#linear-gradient" y1="32" y2="16"/><linearGradient id="linear-gradient-5" x1="14" x2="14" xlink:href="#linear-gradient" y1="23" y2="45"/><linearGradient id="linear-gradient-6" x1="14" x2="14" xlink:href="#linear-gradient" y1="42" y2="26"/></defs><title/><circle class="cls-1" cx="34" cy="14" r="11"/><circle class="cls-2" cx="34" cy="14" r="8"/><path class="cls-3" d="M34,22a11,11,0,0,1-10.89-9.5A12.31,12.31,0,0,0,23,14a11,11,0,0,0,22,0,12.31,12.31,0,0,0-.11-1.5A11,11,0,0,1,34,22Z"/><path class="cls-4" d="M34,6a11,11,0,0,1,10.89,9.5A12.31,12.31,0,0,0,45,14a11,11,0,0,0-22,0,12.31,12.31,0,0,0,.11,1.5A11,11,0,0,1,34,6Z"/><path class="cls-5" d="M34,3a11,11,0,0,0-7.78,18.78L41.78,6.22A11,11,0,0,0,34,3Z"/><circle class="cls-6" cx="34" cy="14" r="11"/><line class="cls-6" x1="28.09" x2="28" y1="14" y2="14"/><line class="cls-6" x1="40.09" x2="40" y1="14" y2="14"/><path class="cls-7" d="M34,15.1l3.48-2.31L34.85,8A1,1,0,0,0,34,7.5h0A1,1,0,0,0,33.1,8l-2.58,4.76Z"/><path class="cls-7" d="M34.41,16.62a.72.72,0,0,1-.42.13.69.69,0,0,1-.41-.13l-3.53-2.35a.64.64,0,0,1,0,.07s0,.09.05.14l3,5.5a1,1,0,0,0,.88.52h0a1,1,0,0,0,.88-.52l3-5.5a.57.57,0,0,0,0-.14l0-.07Z"/><circle class="cls-8" cx="24" cy="24" r="11"/><circle class="cls-9" cx="24" cy="24" r="8"/><path class="cls-3" d="M24,32a11,11,0,0,1-10.89-9.5A12.31,12.31,0,0,0,13,24a11,11,0,0,0,22,0,12.31,12.31,0,0,0-.11-1.5A11,11,0,0,1,24,32Z"/><path class="cls-4" d="M24,16a11,11,0,0,1,10.89,9.5A12.31,12.31,0,0,0,35,24a11,11,0,0,0-22,0,12.31,12.31,0,0,0,.11,1.5A11,11,0,0,1,24,16Z"/><path class="cls-5" d="M24,13a11,11,0,0,0-7.78,18.78L31.78,16.22A11,11,0,0,0,24,13Z"/><circle class="cls-6" cx="24" cy="24" r="11"/><line class="cls-6" x1="18.09" x2="18" y1="24" y2="24"/><line class="cls-6" x1="30.09" x2="30" y1="24" y2="24"/><path class="cls-6" d="M26,22h0a2,2,0,0,1-2,2H22V20h2A2,2,0,0,1,26,22Z"/><line class="cls-6" x1="22" x2="22" y1="20" y2="19"/><line class="cls-6" x1="25" x2="25" y1="20" y2="19"/><line class="cls-6" x1="25" x2="25" y1="29" y2="28"/><line class="cls-6" x1="22" x2="22" y1="29" y2="28"/><line class="cls-6" x1="22" x2="21" y1="20" y2="20"/><line class="cls-6" x1="22" x2="21" y1="28" y2="28"/><path class="cls-6" d="M27,26h0a2,2,0,0,1-2,2H22V24h3A2,2,0,0,1,27,26Z"/><circle class="cls-10" cx="14" cy="34" r="11"/><circle class="cls-11" cx="14" cy="34" r="8"/><path class="cls-3" d="M14,42A11,11,0,0,1,3.11,32.5,12.31,12.31,0,0,0,3,34a11,11,0,0,0,22,0,12.31,12.31,0,0,0-.11-1.5A11,11,0,0,1,14,42Z"/><path class="cls-4" d="M14,26a11,11,0,0,1,10.89,9.5A12.31,12.31,0,0,0,25,34,11,11,0,0,0,3,34a12.31,12.31,0,0,0,.11,1.5A11,11,0,0,1,14,26Z"/><path class="cls-5" d="M14,23A11,11,0,0,0,6.22,41.78L21.78,26.22A11,11,0,0,0,14,23Z"/><circle class="cls-6" cx="14" cy="34" r="11"/><path class="cls-6" d="M12.12,35.9a1.88,1.88,0,0,0,3.76,0c0-1.45-1.88-2-1.88-2s-1.88-.53-1.88-2a1.88,1.88,0,0,1,3.76,0"/><line class="cls-6" x1="14" x2="14" y1="29" y2="30.08"/><line class="cls-6" x1="8.09" x2="8" y1="34" y2="34"/><line class="cls-6" x1="20.09" x2="20" y1="34" y2="34"/><line class="cls-6" x1="14" x2="14" y1="39" y2="37.75"/></svg>